<svg width="155" height="31" viewBox="0 0 155 31" fill="none" xmlns="http://www.w3.org/2000/svg">
<path d="M2.64224 22.1165V0.298273H5.28429V19.7727H15.4263V22.1165H2.64224ZM23.9371 22.4574C22.3604 22.4574 21.0003 22.1094 19.8569 21.4133C18.7205 20.7102 17.8434 19.7301 17.2255 18.473C16.6147 17.2088 16.3093 15.7386 16.3093 14.0625C16.3093 12.3863 16.6147 10.9091 17.2255 9.63066C17.8434 8.34515 18.7028 7.34373 19.8036 6.6264C20.9116 5.90197 22.2042 5.53975 23.6814 5.53975C24.5337 5.53975 25.3753 5.6818 26.2063 5.96589C27.0373 6.24998 27.7937 6.71163 28.4755 7.35083C29.1573 7.98293 29.7006 8.821 30.1055 9.86503C30.5103 10.9091 30.7127 12.1946 30.7127 13.7216V14.7869H18.0991V12.6136H28.1559C28.1559 11.6903 27.9712 10.8665 27.6019 10.142C27.2397 9.41759 26.7212 8.84586 26.0465 8.42682C25.3789 8.00779 24.5905 7.79827 23.6814 7.79827C22.68 7.79827 21.8136 8.04685 21.082 8.54401C20.3576 9.03407 19.8001 9.67327 19.4094 10.4616C19.0188 11.25 18.8235 12.0951 18.8235 12.9971V14.446C18.8235 15.6818 19.0366 16.7294 19.4627 17.5888C19.8959 18.441 20.4961 19.0909 21.2631 19.5383C22.0302 19.9787 22.9215 20.1988 23.9371 20.1988C24.5976 20.1988 25.1942 20.1065 25.7269 19.9219C26.2667 19.7301 26.7319 19.446 27.1225 19.0696C27.5131 18.6861 27.815 18.2102 28.028 17.642L30.457 18.3238C30.2013 19.1477 29.7716 19.8721 29.168 20.4971C28.5643 21.115 27.8185 21.598 26.9307 21.946C26.043 22.2869 25.0451 22.4574 23.9371 22.4574ZM37.2526 22.5C36.2157 22.5 35.2746 22.3047 34.4295 21.914C33.5843 21.5163 32.9131 20.9446 32.416 20.1988C31.9188 19.446 31.6702 18.5369 31.6702 17.4716C31.6702 16.5341 31.8549 15.7741 32.2242 15.1917C32.5935 14.6023 33.0871 14.1406 33.705 13.8068C34.3229 13.473 35.0047 13.2244 35.7505 13.0611C36.5033 12.8906 37.2597 12.7557 38.0197 12.6562C39.014 12.5284 39.8201 12.4325 40.438 12.3686C41.063 12.2976 41.5175 12.1804 41.8016 12.017C42.0928 11.8537 42.2384 11.5696 42.2384 11.1647V11.0795C42.2384 10.0284 41.9508 9.21163 41.3755 8.62924C40.8073 8.04685 39.9444 7.75566 38.7867 7.75566C37.5864 7.75566 36.6454 8.01844 35.9636 8.54401C35.2817 9.06958 34.8023 9.63066 34.5253 10.2272L32.139 9.37498C32.5651 8.38066 33.1333 7.60651 33.8435 7.05253C34.5609 6.49145 35.3421 6.10083 36.1873 5.88066C37.0395 5.65339 37.8776 5.53975 38.7015 5.53975C39.227 5.53975 39.8307 5.60367 40.5126 5.73151C41.2015 5.85225 41.8655 6.10438 42.5047 6.4879C43.1511 6.87143 43.6873 7.45026 44.1134 8.22441C44.5395 8.99856 44.7526 10.0355 44.7526 11.3352V22.1165H42.2384V19.9005H42.1106C41.9401 20.2557 41.656 20.6356 41.2583 21.0405C40.8606 21.4453 40.3314 21.7898 39.6709 22.0738C39.0104 22.3579 38.2043 22.5 37.2526 22.5ZM37.6361 20.2415C38.6305 20.2415 39.4685 20.0461 40.1503 19.6555C40.8393 19.2649 41.3577 18.7606 41.7057 18.1427C42.0609 17.5248 42.2384 16.875 42.2384 16.1932V13.892C42.1319 14.0199 41.8975 14.1371 41.5353 14.2436C41.1802 14.343 40.7682 14.4318 40.2995 14.5099C39.8378 14.5809 39.3868 14.6449 38.9465 14.7017C38.5133 14.7514 38.1617 14.794 37.8918 14.8295C37.2384 14.9148 36.6276 15.0532 36.0594 15.245C35.4984 15.4297 35.0438 15.7102 34.6958 16.0866C34.3549 16.4559 34.1844 16.9602 34.1844 17.5994C34.1844 18.473 34.5076 19.1335 35.1539 19.5809C35.8073 20.0213 36.6347 20.2415 37.6361 20.2415ZM47.2416 22.1165V5.75282H49.6705V8.22441H49.841C50.1393 7.41475 50.6791 6.75779 51.4603 6.25353C52.2416 5.74927 53.1223 5.49714 54.1024 5.49714C54.287 5.49714 54.5178 5.50069 54.7948 5.50779C55.0718 5.51489 55.2813 5.52555 55.4234 5.53975V8.09657C55.3382 8.07526 55.1428 8.0433 54.8375 8.00069C54.5392 7.95097 54.2231 7.92611 53.8893 7.92611C53.0938 7.92611 52.3836 8.09302 51.7586 8.42682C51.1407 8.75353 50.6507 9.20807 50.2884 9.79046C49.9333 10.3657 49.7558 11.0227 49.7558 11.7613V22.1165H47.2416ZM58.8179 12.2727V22.1165H56.3037V5.75282H58.7327V8.30964H58.9457C59.3292 7.47867 59.9116 6.81106 60.6929 6.3068C61.4741 5.79543 62.4827 5.53975 63.7185 5.53975C64.8264 5.53975 65.7959 5.76702 66.6268 6.22157C67.4578 6.66901 68.1041 7.35083 68.5658 8.26702C69.0274 9.17611 69.2582 10.3267 69.2582 11.7187V22.1165H66.744V11.8892C66.744 10.6037 66.4102 9.60225 65.7426 8.88492C65.075 8.16049 64.1588 7.79827 62.994 7.79827C62.1915 7.79827 61.4741 7.97228 60.842 8.32029C60.217 8.6683 59.7234 9.17611 59.3612 9.84373C58.999 10.5113 58.8179 11.321 58.8179 12.2727ZM73.5849 22.2869C73.0593 22.2869 72.6083 22.0987 72.2319 21.7223C71.8555 21.3459 71.6673 20.8949 71.6673 20.3693C71.6673 19.8437 71.8555 19.3927 72.2319 19.0163C72.6083 18.6399 73.0593 18.4517 73.5849 18.4517C74.1105 18.4517 74.5615 18.6399 74.9379 19.0163C75.3143 19.3927 75.5025 19.8437 75.5025 20.3693C75.5025 20.7173 75.4137 21.0369 75.2362 21.3281C75.0657 21.6193 74.8349 21.8537 74.5437 22.0312C74.2596 22.2017 73.94 22.2869 73.5849 22.2869ZM73.5849 10.142C73.0593 10.142 72.6083 9.95381 72.2319 9.57739C71.8555 9.20097 71.6673 8.74998 71.6673 8.22441C71.6673 7.69884 71.8555 7.24785 72.2319 6.87143C72.6083 6.49501 73.0593 6.3068 73.5849 6.3068C74.1105 6.3068 74.5615 6.49501 74.9379 6.87143C75.3143 7.24785 75.5025 7.69884 75.5025 8.22441C75.5025 8.57242 75.4137 8.89202 75.2362 9.18322C75.0657 9.47441 74.8349 9.70878 74.5437 9.88634C74.2596 10.0568 73.94 10.142 73.5849 10.142ZM96.5245 5.75282C96.3966 4.67327 95.8781 3.83521 94.9691 3.23861C94.06 2.64202 92.9449 2.34373 91.6239 2.34373C90.658 2.34373 89.8128 2.49998 89.0884 2.81248C88.371 3.12498 87.81 3.55466 87.4051 4.10154C87.0074 4.64841 86.8085 5.26986 86.8085 5.96589C86.8085 6.54827 86.947 7.04898 87.224 7.46802C87.5081 7.87995 87.8703 8.22441 88.3107 8.5014C88.751 8.77128 89.2127 8.99501 89.6956 9.17256C90.1786 9.34302 90.6225 9.48151 91.0273 9.58805L93.2432 10.1846C93.8114 10.3338 94.4435 10.5398 95.1395 10.8025C95.8426 11.0653 96.5138 11.424 97.153 11.8785C97.7993 12.326 98.332 12.9013 98.751 13.6044C99.1701 14.3075 99.3796 15.1704 99.3796 16.1932C99.3796 17.3721 99.0706 18.4375 98.4527 19.3892C97.8419 20.3409 96.947 21.0973 95.7681 21.6584C94.5962 22.2194 93.1722 22.5 91.496 22.5C89.9335 22.5 88.5806 22.2478 87.4371 21.7436C86.3007 21.2393 85.4058 20.5362 84.7524 19.6342C84.1061 18.7322 83.7404 17.6846 83.6551 16.4915H86.3824C86.4534 17.3153 86.7304 17.9971 87.2134 18.5369C87.7034 19.0696 88.3213 19.4673 89.0671 19.7301C89.8199 19.9858 90.6296 20.1136 91.496 20.1136C92.5046 20.1136 93.4101 19.9503 94.2127 19.6236C95.0152 19.2898 95.6509 18.8281 96.1196 18.2386C96.5884 17.642 96.8228 16.946 96.8228 16.1505C96.8228 15.4261 96.6203 14.8366 96.2155 14.3821C95.8107 13.9275 95.278 13.5582 94.6175 13.2741C93.957 12.99 93.2432 12.7415 92.4762 12.5284L89.7915 11.7613C88.087 11.2713 86.7375 10.5717 85.7432 9.66262C84.7489 8.75353 84.2517 7.5639 84.2517 6.09373C84.2517 4.87214 84.582 3.8068 85.2425 2.89771C85.9101 1.98151 86.805 1.27128 87.9272 0.767023C89.0564 0.255659 90.3171 -2.30074e-05 91.7091 -2.30074e-05C93.1154 -2.30074e-05 94.3654 0.252108 95.4591 0.756369C96.5529 1.25353 97.4193 1.93535 98.0585 2.80182C98.7049 3.6683 99.0458 4.65197 99.0813 5.75282H96.5245ZM108.399 5.75282V7.8835H99.9189V5.75282H108.399ZM102.391 1.83236H104.905V17.429C104.905 18.1392 105.008 18.6719 105.214 19.027C105.427 19.375 105.697 19.6094 106.023 19.7301C106.357 19.8437 106.709 19.9005 107.078 19.9005C107.355 19.9005 107.582 19.8863 107.76 19.8579C107.937 19.8224 108.079 19.794 108.186 19.7727L108.697 22.0312C108.527 22.0951 108.289 22.1591 107.984 22.223C107.678 22.294 107.291 22.3295 106.822 22.3295C106.112 22.3295 105.416 22.1768 104.734 21.8714C104.06 21.566 103.498 21.1008 103.051 20.4758C102.611 19.8508 102.391 19.0625 102.391 18.1108V1.83236ZM116.553 22.4574C115.076 22.4574 113.78 22.1058 112.664 21.4027C111.557 20.6996 110.69 19.7159 110.065 18.4517C109.447 17.1875 109.138 15.7102 109.138 14.0199C109.138 12.3153 109.447 10.8274 110.065 9.55609C110.69 8.28478 111.557 7.29756 112.664 6.59444C113.78 5.89131 115.076 5.53975 116.553 5.53975C118.03 5.53975 119.323 5.89131 120.431 6.59444C121.546 7.29756 122.412 8.28478 123.03 9.55609C123.655 10.8274 123.968 12.3153 123.968 14.0199C123.968 15.7102 123.655 17.1875 123.03 18.4517C122.412 19.7159 121.546 20.6996 120.431 21.4027C119.323 22.1058 118.03 22.4574 116.553 22.4574ZM116.553 20.1988C117.675 20.1988 118.598 19.9112 119.323 19.3359C120.047 18.7606 120.584 18.0042 120.932 17.0667C121.28 16.1292 121.454 15.1136 121.454 14.0199C121.454 12.9261 121.28 11.9069 120.932 10.9623C120.584 10.0177 120.047 9.25424 119.323 8.67185C118.598 8.08947 117.675 7.79827 116.553 7.79827C115.431 7.79827 114.508 8.08947 113.783 8.67185C113.059 9.25424 112.522 10.0177 112.174 10.9623C111.826 11.9069 111.652 12.9261 111.652 14.0199C111.652 15.1136 111.826 16.1292 112.174 17.0667C112.522 18.0042 113.059 18.7606 113.783 19.3359C114.508 19.9112 115.431 20.1988 116.553 20.1988ZM132.353 22.4574C130.819 22.4574 129.498 22.0951 128.39 21.3707C127.282 20.6463 126.43 19.6484 125.833 18.3771C125.237 17.1058 124.939 15.6534 124.939 14.0199C124.939 12.3579 125.244 10.8913 125.855 9.62001C126.473 8.3416 127.332 7.34373 128.433 6.6264C129.541 5.90197 130.833 5.53975 132.311 5.53975C133.461 5.53975 134.498 5.75282 135.422 6.17896C136.345 6.60509 137.101 7.20168 137.691 7.96873C138.28 8.73577 138.646 9.63066 138.788 10.6534H136.274C136.082 9.90765 135.656 9.24714 134.995 8.67185C134.342 8.08947 133.461 7.79827 132.353 7.79827C131.373 7.79827 130.514 8.05395 129.775 8.56532C129.044 9.06958 128.472 9.78336 128.06 10.7067C127.655 11.6228 127.453 12.6988 127.453 13.9346C127.453 15.1988 127.652 16.2997 128.049 17.2372C128.454 18.1747 129.022 18.9027 129.754 19.4211C130.493 19.9396 131.359 20.1988 132.353 20.1988C133.007 20.1988 133.6 20.0852 134.132 19.8579C134.665 19.6307 135.116 19.304 135.485 18.8778C135.855 18.4517 136.118 17.9403 136.274 17.3437H138.788C138.646 18.3096 138.294 19.1797 137.733 19.9538C137.179 20.7209 136.444 21.3317 135.528 21.7862C134.619 22.2336 133.561 22.4574 132.353 22.4574ZM142.707 16.1505L142.665 13.0398H143.176L150.335 5.75282H153.446L145.818 13.4659H145.605L142.707 16.1505ZM140.363 22.1165V0.298273H142.878V22.1165H140.363ZM150.761 22.1165L144.369 14.0199L146.159 12.2727L153.957 22.1165H150.761Z" fill="white"/>
<path d="M0.000198364 28.0824H154.383V30.1278H0.000198364V28.0824Z" fill="white"/>
</svg>
