<svg width="184" height="31" viewBox="0 0 184 31" fill="none" xmlns="http://www.w3.org/2000/svg">
<path d="M2.64224 22.5V0.681818H5.28429V20.1562H15.4263V22.5H2.64224ZM23.9371 22.8409C22.3604 22.8409 21.0003 22.4929 19.8569 21.7969C18.7205 21.0938 17.8434 20.1136 17.2255 18.8565C16.6147 17.5923 16.3093 16.1222 16.3093 14.446C16.3093 12.7699 16.6147 11.2926 17.2255 10.0142C17.8434 8.72869 18.7028 7.72727 19.8036 7.00994C20.9116 6.28551 22.2042 5.9233 23.6814 5.9233C24.5337 5.9233 25.3753 6.06534 26.2063 6.34943C27.0373 6.63352 27.7937 7.09517 28.4755 7.73438C29.1573 8.36648 29.7006 9.20455 30.1055 10.2486C30.5103 11.2926 30.7127 12.5781 30.7127 14.1051V15.1705H18.0991V12.9972H28.1559C28.1559 12.0739 27.9712 11.25 27.6019 10.5256C27.2397 9.80114 26.7212 9.2294 26.0465 8.81037C25.3789 8.39133 24.5905 8.18182 23.6814 8.18182C22.68 8.18182 21.8136 8.4304 21.082 8.92756C20.3576 9.41761 19.8001 10.0568 19.4094 10.8452C19.0188 11.6335 18.8235 12.4787 18.8235 13.3807V14.8295C18.8235 16.0653 19.0366 17.1129 19.4627 17.9723C19.8959 18.8246 20.4961 19.4744 21.2631 19.9219C22.0302 20.3622 22.9215 20.5824 23.9371 20.5824C24.5976 20.5824 25.1942 20.4901 25.7269 20.3054C26.2667 20.1136 26.7319 19.8295 27.1225 19.4531C27.5131 19.0696 27.815 18.5937 28.028 18.0256L30.457 18.7074C30.2013 19.5312 29.7716 20.2557 29.168 20.8807C28.5643 21.4986 27.8185 21.9815 26.9307 22.3295C26.043 22.6705 25.0451 22.8409 23.9371 22.8409ZM37.2526 22.8835C36.2157 22.8835 35.2746 22.6882 34.4295 22.2976C33.5843 21.8999 32.9131 21.3281 32.416 20.5824C31.9188 19.8295 31.6702 18.9205 31.6702 17.8551C31.6702 16.9176 31.8549 16.1577 32.2242 15.5753C32.5935 14.9858 33.0871 14.5241 33.705 14.1903C34.3229 13.8565 35.0047 13.608 35.7505 13.4446C36.5033 13.2741 37.2597 13.1392 38.0197 13.0398C39.014 12.9119 39.8201 12.8161 40.438 12.7521C41.063 12.6811 41.5175 12.5639 41.8016 12.4006C42.0928 12.2372 42.2384 11.9531 42.2384 11.5483V11.4631C42.2384 10.4119 41.9508 9.59517 41.3755 9.01278C40.8073 8.4304 39.9444 8.1392 38.7867 8.1392C37.5864 8.1392 36.6454 8.40199 35.9636 8.92756C35.2817 9.45312 34.8023 10.0142 34.5253 10.6108L32.139 9.75852C32.5651 8.7642 33.1333 7.99006 33.8435 7.43608C34.5609 6.875 35.3421 6.48437 36.1873 6.2642C37.0395 6.03693 37.8776 5.9233 38.7015 5.9233C39.227 5.9233 39.8307 5.98722 40.5126 6.11506C41.2015 6.23579 41.8655 6.48793 42.5047 6.87145C43.1511 7.25497 43.6873 7.83381 44.1134 8.60795C44.5395 9.3821 44.7526 10.419 44.7526 11.7188V22.5H42.2384V20.2841H42.1106C41.9401 20.6392 41.656 21.0192 41.2583 21.424C40.8606 21.8288 40.3314 22.1733 39.6709 22.4574C39.0104 22.7415 38.2043 22.8835 37.2526 22.8835ZM37.6361 20.625C38.6305 20.625 39.4685 20.4297 40.1503 20.0391C40.8393 19.6484 41.3577 19.1442 41.7057 18.5263C42.0609 17.9084 42.2384 17.2585 42.2384 16.5767V14.2756C42.1319 14.4034 41.8975 14.5206 41.5353 14.6271C41.1802 14.7266 40.7682 14.8153 40.2995 14.8935C39.8378 14.9645 39.3868 15.0284 38.9465 15.0852C38.5133 15.1349 38.1617 15.1776 37.8918 15.2131C37.2384 15.2983 36.6276 15.4368 36.0594 15.6286C35.4984 15.8132 35.0438 16.0937 34.6958 16.4702C34.3549 16.8395 34.1844 17.3437 34.1844 17.983C34.1844 18.8565 34.5076 19.517 35.1539 19.9645C35.8073 20.4048 36.6347 20.625 37.6361 20.625ZM47.2416 22.5V6.13636H49.6705V8.60795H49.841C50.1393 7.7983 50.6791 7.14134 51.4603 6.63707C52.2416 6.13281 53.1223 5.88068 54.1024 5.88068C54.287 5.88068 54.5178 5.88423 54.7948 5.89133C55.0718 5.89844 55.2813 5.90909 55.4234 5.9233V8.48011C55.3382 8.45881 55.1428 8.42685 54.8375 8.38423C54.5392 8.33452 54.2231 8.30966 53.8893 8.30966C53.0938 8.30966 52.3836 8.47656 51.7586 8.81037C51.1407 9.13707 50.6507 9.59162 50.2884 10.174C49.9333 10.7493 49.7558 11.4062 49.7558 12.1449V22.5H47.2416ZM58.8179 12.6562V22.5H56.3037V6.13636H58.7327V8.69318H58.9457C59.3292 7.86222 59.9116 7.1946 60.6929 6.69034C61.4741 6.17898 62.4827 5.9233 63.7185 5.9233C64.8264 5.9233 65.7959 6.15057 66.6268 6.60511C67.4578 7.05256 68.1041 7.73438 68.5658 8.65057C69.0274 9.55966 69.2582 10.7102 69.2582 12.1023V22.5H66.744V12.2727C66.744 10.9872 66.4102 9.9858 65.7426 9.26847C65.075 8.54403 64.1588 8.18182 62.994 8.18182C62.1915 8.18182 61.4741 8.35582 60.842 8.70383C60.217 9.05185 59.7234 9.55966 59.3612 10.2273C58.999 10.8949 58.8179 11.7045 58.8179 12.6562ZM73.5849 22.6705C73.0593 22.6705 72.6083 22.4822 72.2319 22.1058C71.8555 21.7294 71.6673 21.2784 71.6673 20.7528C71.6673 20.2273 71.8555 19.7763 72.2319 19.3999C72.6083 19.0234 73.0593 18.8352 73.5849 18.8352C74.1105 18.8352 74.5615 19.0234 74.9379 19.3999C75.3143 19.7763 75.5025 20.2273 75.5025 20.7528C75.5025 21.1009 75.4137 21.4205 75.2362 21.7116C75.0657 22.0028 74.8349 22.2372 74.5437 22.4148C74.2596 22.5852 73.94 22.6705 73.5849 22.6705ZM73.5849 10.5256C73.0593 10.5256 72.6083 10.3374 72.2319 9.96094C71.8555 9.58452 71.6673 9.13352 71.6673 8.60795C71.6673 8.08239 71.8555 7.63139 72.2319 7.25497C72.6083 6.87855 73.0593 6.69034 73.5849 6.69034C74.1105 6.69034 74.5615 6.87855 74.9379 7.25497C75.3143 7.63139 75.5025 8.08239 75.5025 8.60795C75.5025 8.95597 75.4137 9.27557 75.2362 9.56676C75.0657 9.85795 74.8349 10.0923 74.5437 10.2699C74.2596 10.4403 73.94 10.5256 73.5849 10.5256ZM85.4875 0.681818L91.9648 19.0483H92.2205L98.6978 0.681818H101.468L93.4563 22.5H90.729L82.7176 0.681818H85.4875ZM107.549 22.8409C106.072 22.8409 104.776 22.4893 103.661 21.7862C102.553 21.0831 101.687 20.0994 101.062 18.8352C100.444 17.571 100.135 16.0937 100.135 14.4034C100.135 12.6989 100.444 11.2109 101.062 9.93963C101.687 8.66832 102.553 7.68111 103.661 6.97798C104.776 6.27486 106.072 5.9233 107.549 5.9233C109.027 5.9233 110.319 6.27486 111.427 6.97798C112.542 7.68111 113.409 8.66832 114.027 9.93963C114.652 11.2109 114.964 12.6989 114.964 14.4034C114.964 16.0937 114.652 17.571 114.027 18.8352C113.409 20.0994 112.542 21.0831 111.427 21.7862C110.319 22.4893 109.027 22.8409 107.549 22.8409ZM107.549 20.5824C108.672 20.5824 109.595 20.2947 110.319 19.7195C111.044 19.1442 111.58 18.3878 111.928 17.4503C112.276 16.5128 112.45 15.4972 112.45 14.4034C112.45 13.3097 112.276 12.2905 111.928 11.3459C111.58 10.4013 111.044 9.63778 110.319 9.0554C109.595 8.47301 108.672 8.18182 107.549 8.18182C106.427 8.18182 105.504 8.47301 104.78 9.0554C104.055 9.63778 103.519 10.4013 103.171 11.3459C102.823 12.2905 102.649 13.3097 102.649 14.4034C102.649 15.4972 102.823 16.5128 103.171 17.4503C103.519 18.3878 104.055 19.1442 104.78 19.7195C105.504 20.2947 106.427 20.5824 107.549 20.5824ZM119.216 0.681818V22.5H116.702V0.681818H119.216ZM126.537 22.8835C125.5 22.8835 124.559 22.6882 123.713 22.2976C122.868 21.8999 122.197 21.3281 121.7 20.5824C121.203 19.8295 120.954 18.9205 120.954 17.8551C120.954 16.9176 121.139 16.1577 121.508 15.5753C121.878 14.9858 122.371 14.5241 122.989 14.1903C123.607 13.8565 124.289 13.608 125.034 13.4446C125.787 13.2741 126.544 13.1392 127.304 13.0398C128.298 12.9119 129.104 12.8161 129.722 12.7521C130.347 12.6811 130.802 12.5639 131.086 12.4006C131.377 12.2372 131.522 11.9531 131.522 11.5483V11.4631C131.522 10.4119 131.235 9.59517 130.659 9.01278C130.091 8.4304 129.228 8.1392 128.071 8.1392C126.87 8.1392 125.929 8.40199 125.248 8.92756C124.566 9.45312 124.086 10.0142 123.809 10.6108L121.423 9.75852C121.849 8.7642 122.417 7.99006 123.128 7.43608C123.845 6.875 124.626 6.48437 125.471 6.2642C126.324 6.03693 127.162 5.9233 127.985 5.9233C128.511 5.9233 129.115 5.98722 129.797 6.11506C130.485 6.23579 131.15 6.48793 131.789 6.87145C132.435 7.25497 132.971 7.83381 133.397 8.60795C133.824 9.3821 134.037 10.419 134.037 11.7188V22.5H131.522V20.2841H131.395C131.224 20.6392 130.94 21.0192 130.542 21.424C130.145 21.8288 129.615 22.1733 128.955 22.4574C128.294 22.7415 127.488 22.8835 126.537 22.8835ZM126.92 20.625C127.914 20.625 128.753 20.4297 129.434 20.0391C130.123 19.6484 130.642 19.1442 130.99 18.5263C131.345 17.9084 131.522 17.2585 131.522 16.5767V14.2756C131.416 14.4034 131.181 14.5206 130.819 14.6271C130.464 14.7266 130.052 14.8153 129.583 14.8935C129.122 14.9645 128.671 15.0284 128.23 15.0852C127.797 15.1349 127.446 15.1776 127.176 15.2131C126.522 15.2983 125.912 15.4368 125.343 15.6286C124.782 15.8132 124.328 16.0937 123.98 16.4702C123.639 16.8395 123.468 17.3437 123.468 17.983C123.468 18.8565 123.792 19.517 124.438 19.9645C125.091 20.4048 125.919 20.625 126.92 20.625ZM143.642 6.13636V8.26704H135.162V6.13636H143.642ZM137.634 2.21591H140.148V17.8125C140.148 18.5227 140.251 19.0554 140.457 19.4105C140.67 19.7585 140.94 19.9929 141.266 20.1136C141.6 20.2273 141.952 20.2841 142.321 20.2841C142.598 20.2841 142.825 20.2699 143.003 20.2415C143.18 20.206 143.322 20.1776 143.429 20.1562L143.94 22.4148C143.77 22.4787 143.532 22.5426 143.227 22.6065C142.921 22.6776 142.534 22.7131 142.065 22.7131C141.355 22.7131 140.659 22.5604 139.977 22.255C139.303 21.9496 138.741 21.4844 138.294 20.8594C137.854 20.2344 137.634 19.446 137.634 18.4943V2.21591ZM145.324 22.5V6.13636H147.838V22.5H145.324ZM146.602 3.40909C146.112 3.40909 145.69 3.24219 145.335 2.90838C144.987 2.57457 144.813 2.1733 144.813 1.70455C144.813 1.2358 144.987 0.834517 145.335 0.500709C145.69 0.166903 146.112 0 146.602 0C147.092 0 147.511 0.166903 147.86 0.500709C148.215 0.834517 148.392 1.2358 148.392 1.70455C148.392 2.1733 148.215 2.57457 147.86 2.90838C147.511 3.24219 147.092 3.40909 146.602 3.40909ZM152.857 0.681818V22.5H150.343V0.681818H152.857ZM155.362 22.5V6.13636H157.876V22.5H155.362ZM156.641 3.40909C156.151 3.40909 155.728 3.24219 155.373 2.90838C155.025 2.57457 154.851 2.1733 154.851 1.70455C154.851 1.2358 155.025 0.834517 155.373 0.500709C155.728 0.166903 156.151 0 156.641 0C157.131 0 157.55 0.166903 157.898 0.500709C158.253 0.834517 158.43 1.2358 158.43 1.70455C158.43 2.1733 158.253 2.57457 157.898 2.90838C157.55 3.24219 157.131 3.40909 156.641 3.40909ZM167.498 6.13636V8.26704H159.018V6.13636H167.498ZM161.489 2.21591H164.004V17.8125C164.004 18.5227 164.107 19.0554 164.313 19.4105C164.526 19.7585 164.795 19.9929 165.122 20.1136C165.456 20.2273 165.808 20.2841 166.177 20.2841C166.454 20.2841 166.681 20.2699 166.859 20.2415C167.036 20.206 167.178 20.1776 167.285 20.1562L167.796 22.4148C167.626 22.4787 167.388 22.5426 167.082 22.6065C166.777 22.6776 166.39 22.7131 165.921 22.7131C165.211 22.7131 164.515 22.5604 163.833 22.255C163.158 21.9496 162.597 21.4844 162.15 20.8594C161.71 20.2344 161.489 19.446 161.489 18.4943V2.21591ZM170.799 28.6364C170.373 28.6364 169.993 28.6009 169.659 28.5298C169.325 28.4659 169.095 28.402 168.967 28.3381L169.606 26.1222C170.217 26.2784 170.757 26.3352 171.225 26.2926C171.694 26.25 172.11 26.0405 172.472 25.6641C172.841 25.2947 173.178 24.6946 173.484 23.8636L173.953 22.5852L167.901 6.13636H170.629L175.146 19.1761H175.316L179.833 6.13636H182.561L175.615 24.8864C175.302 25.7315 174.915 26.4311 174.453 26.9851C173.992 27.5462 173.455 27.9616 172.845 28.2315C172.241 28.5014 171.559 28.6364 170.799 28.6364Z" fill="white"/>
<path d="M0.000198364 28.4659H167.322V30.5114H0.000198364V28.4659ZM174.202 28.4659H183.583V30.5114H174.202V28.4659Z" fill="white"/>
</svg>
