<svg width="244" height="31" viewBox="0 0 244 31" fill="none" xmlns="http://www.w3.org/2000/svg">
<path d="M14.5739 5.75282C14.4461 4.67327 13.9276 3.83521 13.0185 3.23861C12.1094 2.64202 10.9944 2.34373 9.67334 2.34373C8.70743 2.34373 7.86226 2.49998 7.13783 2.81248C6.4205 3.12498 5.85942 3.55466 5.45459 4.10154C5.05686 4.64841 4.858 5.26986 4.858 5.96589C4.858 6.54827 4.99649 7.04898 5.27348 7.46802C5.55757 7.87995 5.91979 8.22441 6.36013 8.5014C6.80047 8.77128 7.26212 8.99501 7.74507 9.17256C8.22803 9.34302 8.67192 9.48151 9.07675 9.58805L11.2927 10.1846C11.8608 10.3338 12.4929 10.5398 13.189 10.8025C13.8921 11.0653 14.5633 11.424 15.2025 11.8785C15.8488 12.326 16.3814 12.9013 16.8005 13.6044C17.2195 14.3075 17.429 15.1704 17.429 16.1932C17.429 17.3721 17.1201 18.4375 16.5022 19.3892C15.8914 20.3409 14.9965 21.0973 13.8175 21.6584C12.6456 22.2194 11.2216 22.5 9.5455 22.5C7.983 22.5 6.63002 22.2478 5.48655 21.7436C4.35019 21.2393 3.4553 20.5362 2.80189 19.6342C2.15559 18.7322 1.78982 17.6846 1.70459 16.4915H4.43186C4.50289 17.3153 4.77988 17.9971 5.26283 18.5369C5.75289 19.0696 6.37078 19.4673 7.11652 19.7301C7.86936 19.9858 8.67902 20.1136 9.5455 20.1136C10.554 20.1136 11.4596 19.9503 12.2621 19.6236C13.0647 19.2898 13.7003 18.8281 14.1691 18.2386C14.6378 17.642 14.8722 16.946 14.8722 16.1505C14.8722 15.4261 14.6698 14.8366 14.265 14.3821C13.8601 13.9275 13.3275 13.5582 12.6669 13.2741C12.0064 12.99 11.2927 12.7415 10.5256 12.5284L7.84096 11.7613C6.13641 11.2713 4.78698 10.5717 3.79266 9.66262C2.79834 8.75353 2.30118 7.5639 2.30118 6.09373C2.30118 4.87214 2.63144 3.8068 3.29195 2.89771C3.95956 1.98151 4.85445 1.27128 5.97661 0.767023C7.10587 0.255659 8.36652 -2.30074e-05 9.75857 -2.30074e-05C11.1648 -2.30074e-05 12.4148 0.252108 13.5086 0.756369C14.6023 1.25353 15.4688 1.93535 16.108 2.80182C16.7543 3.6683 17.0952 4.65197 17.1307 5.75282H14.5739ZM26.4485 5.75282V7.8835H17.9684V5.75282H26.4485ZM20.44 1.83236H22.9542V17.429C22.9542 18.1392 23.0572 18.6719 23.2631 19.027C23.4762 19.375 23.7461 19.6094 24.0728 19.7301C24.4066 19.8437 24.7582 19.9005 25.1275 19.9005C25.4045 19.9005 25.6318 19.8863 25.8093 19.8579C25.9869 19.8224 26.1289 19.794 26.2355 19.7727L26.7468 22.0312C26.5764 22.0951 26.3384 22.1591 26.033 22.223C25.7276 22.294 25.3406 22.3295 24.8718 22.3295C24.1616 22.3295 23.4656 22.1768 22.7837 21.8714C22.109 21.566 21.548 21.1008 21.1005 20.4758C20.6602 19.8508 20.44 19.0625 20.44 18.1108V1.83236ZM34.6024 22.4574C33.1252 22.4574 31.829 22.1058 30.7139 21.4027C29.606 20.6996 28.7395 19.7159 28.1145 18.4517C27.4966 17.1875 27.1877 15.7102 27.1877 14.0199C27.1877 12.3153 27.4966 10.8274 28.1145 9.55609C28.7395 8.28478 29.606 7.29756 30.7139 6.59444C31.829 5.89131 33.1252 5.53975 34.6024 5.53975C36.0797 5.53975 37.3723 5.89131 38.4803 6.59444C39.5953 7.29756 40.4618 8.28478 41.0797 9.55609C41.7047 10.8274 42.0172 12.3153 42.0172 14.0199C42.0172 15.7102 41.7047 17.1875 41.0797 18.4517C40.4618 19.7159 39.5953 20.6996 38.4803 21.4027C37.3723 22.1058 36.0797 22.4574 34.6024 22.4574ZM34.6024 20.1988C35.7246 20.1988 36.6479 19.9112 37.3723 19.3359C38.0967 18.7606 38.633 18.0042 38.981 17.0667C39.329 16.1292 39.503 15.1136 39.503 14.0199C39.503 12.9261 39.329 11.9069 38.981 10.9623C38.633 10.0177 38.0967 9.25424 37.3723 8.67185C36.6479 8.08947 35.7246 7.79827 34.6024 7.79827C33.4803 7.79827 32.557 8.08947 31.8325 8.67185C31.1081 9.25424 30.5719 10.0177 30.2239 10.9623C29.8759 11.9069 29.7019 12.9261 29.7019 14.0199C29.7019 15.1136 29.8759 16.1292 30.2239 17.0667C30.5719 18.0042 31.1081 18.7606 31.8325 19.3359C32.557 19.9112 33.4803 20.1988 34.6024 20.1988ZM43.7551 28.2528V5.75282H46.1841V8.35225H46.4824C46.667 8.06816 46.9227 7.70594 47.2494 7.2656C47.5832 6.81816 48.0591 6.42043 48.677 6.07242C49.302 5.71731 50.1471 5.53975 51.2125 5.53975C52.5903 5.53975 53.8048 5.88421 54.8559 6.57313C55.9071 7.26205 56.7274 8.23861 57.3169 9.50282C57.9064 10.767 58.2011 12.2585 58.2011 13.9773C58.2011 15.7102 57.9064 17.2123 57.3169 18.4836C56.7274 19.7478 55.9106 20.728 54.8666 21.424C53.8226 22.1129 52.6187 22.4574 51.2551 22.4574C50.204 22.4574 49.3623 22.2834 48.7302 21.9353C48.0981 21.5802 47.6116 21.179 47.2707 20.7315C46.9298 20.277 46.667 19.9005 46.4824 19.6023H46.2693V28.2528H43.7551ZM46.2267 13.9346C46.2267 15.1704 46.4078 16.2606 46.77 17.2052C47.1322 18.1427 47.6613 18.8778 48.3574 19.4105C49.0534 19.9361 49.9057 20.1988 50.9142 20.1988C51.9653 20.1988 52.8424 19.9219 53.5456 19.3679C54.2558 18.8068 54.7885 18.054 55.1436 17.1094C55.5058 16.1576 55.6869 15.0994 55.6869 13.9346C55.6869 12.7841 55.5094 11.7471 55.1542 10.8238C54.8062 9.89344 54.2771 9.15836 53.5669 8.61859C52.8638 8.07171 51.9795 7.79827 50.9142 7.79827C49.8915 7.79827 49.0321 8.05751 48.3361 8.57597C47.64 9.08734 47.1145 9.80467 46.7594 10.728C46.4042 11.6442 46.2267 12.713 46.2267 13.9346ZM69.3113 11.5909V13.9346H59.7659V11.5909H69.3113ZM74.1494 0.298273V22.1165H71.6352V0.298273H74.1494ZM83.302 22.4574C81.8248 22.4574 80.5286 22.1058 79.4135 21.4027C78.3056 20.6996 77.4391 19.7159 76.8141 18.4517C76.1962 17.1875 75.8873 15.7102 75.8873 14.0199C75.8873 12.3153 76.1962 10.8274 76.8141 9.55609C77.4391 8.28478 78.3056 7.29756 79.4135 6.59444C80.5286 5.89131 81.8248 5.53975 83.302 5.53975C84.7793 5.53975 86.0719 5.89131 87.1799 6.59444C88.2949 7.29756 89.1614 8.28478 89.7793 9.55609C90.4043 10.8274 90.7168 12.3153 90.7168 14.0199C90.7168 15.7102 90.4043 17.1875 89.7793 18.4517C89.1614 19.7159 88.2949 20.6996 87.1799 21.4027C86.0719 22.1058 84.7793 22.4574 83.302 22.4574ZM83.302 20.1988C84.4242 20.1988 85.3475 19.9112 86.0719 19.3359C86.7964 18.7606 87.3326 18.0042 87.6806 17.0667C88.0286 16.1292 88.2026 15.1136 88.2026 14.0199C88.2026 12.9261 88.0286 11.9069 87.6806 10.9623C87.3326 10.0177 86.7964 9.25424 86.0719 8.67185C85.3475 8.08947 84.4242 7.79827 83.302 7.79827C82.1799 7.79827 81.2566 8.08947 80.5321 8.67185C79.8077 9.25424 79.2715 10.0177 78.9235 10.9623C78.5755 11.9069 78.4015 12.9261 78.4015 14.0199C78.4015 15.1136 78.5755 16.1292 78.9235 17.0667C79.2715 18.0042 79.8077 18.7606 80.5321 19.3359C81.2566 19.9112 82.1799 20.1988 83.302 20.1988ZM104.046 9.41759L101.787 10.0568C101.645 9.68037 101.436 9.31461 101.159 8.95949C100.889 8.59728 100.519 8.29898 100.051 8.06461C99.5818 7.83023 98.9817 7.71305 98.2502 7.71305C97.2487 7.71305 96.4142 7.94387 95.7466 8.40552C95.0861 8.86006 94.7558 9.4389 94.7558 10.142C94.7558 10.767 94.9831 11.2606 95.4377 11.6228C95.8922 11.9851 96.6024 12.2869 97.5683 12.5284L99.9973 13.125C101.46 13.4801 102.551 14.0234 103.268 14.7549C103.985 15.4794 104.344 16.4133 104.344 17.5568C104.344 18.4943 104.074 19.3324 103.534 20.071C103.002 20.8096 102.256 21.392 101.297 21.8182C100.338 22.2443 99.2232 22.4574 97.9519 22.4574C96.2828 22.4574 94.9014 22.0951 93.8077 21.3707C92.7139 20.6463 92.0215 19.588 91.7303 18.196L94.1166 17.5994C94.3439 18.4801 94.7736 19.1406 95.4057 19.5809C96.0449 20.0213 96.8794 20.2415 97.9092 20.2415C99.0811 20.2415 100.012 19.9929 100.7 19.4957C101.396 18.9915 101.744 18.3878 101.744 17.6846C101.744 17.1165 101.546 16.6406 101.148 16.2571C100.75 15.8665 100.139 15.5753 99.3155 15.3835L96.5882 14.7443C95.0896 14.3892 93.9888 13.8388 93.2857 13.093C92.5896 12.3402 92.2416 11.3991 92.2416 10.2699C92.2416 9.34657 92.5009 8.52981 93.0193 7.81958C93.5449 7.10935 94.2587 6.55182 95.1607 6.14699C96.0698 5.74217 97.0996 5.53975 98.2502 5.53975C99.8695 5.53975 101.141 5.89486 102.064 6.60509C102.994 7.31532 103.655 8.25282 104.046 9.41759ZM117.619 9.41759L115.361 10.0568C115.219 9.68037 115.009 9.31461 114.732 8.95949C114.462 8.59728 114.093 8.29898 113.624 8.06461C113.156 7.83023 112.556 7.71305 111.824 7.71305C110.823 7.71305 109.988 7.94387 109.32 8.40552C108.66 8.86006 108.33 9.4389 108.33 10.142C108.33 10.767 108.557 11.2606 109.011 11.6228C109.466 11.9851 110.176 12.2869 111.142 12.5284L113.571 13.125C115.034 13.4801 116.124 14.0234 116.842 14.7549C117.559 15.4794 117.918 16.4133 117.918 17.5568C117.918 18.4943 117.648 19.3324 117.108 20.071C116.575 20.8096 115.83 21.392 114.871 21.8182C113.912 22.2443 112.797 22.4574 111.526 22.4574C109.857 22.4574 108.475 22.0951 107.382 21.3707C106.288 20.6463 105.595 19.588 105.304 18.196L107.69 17.5994C107.918 18.4801 108.347 19.1406 108.98 19.5809C109.619 20.0213 110.453 20.2415 111.483 20.2415C112.655 20.2415 113.585 19.9929 114.274 19.4957C114.97 18.9915 115.318 18.3878 115.318 17.6846C115.318 17.1165 115.119 16.6406 114.722 16.2571C114.324 15.8665 113.713 15.5753 112.889 15.3835L110.162 14.7443C108.663 14.3892 107.563 13.8388 106.859 13.093C106.163 12.3402 105.815 11.3991 105.815 10.2699C105.815 9.34657 106.075 8.52981 106.593 7.81958C107.119 7.10935 107.833 6.55182 108.734 6.14699C109.644 5.74217 110.673 5.53975 111.824 5.53975C113.443 5.53975 114.715 5.89486 115.638 6.60509C116.568 7.31532 117.229 8.25282 117.619 9.41759ZM132.588 22.4574C131.053 22.4574 129.732 22.0951 128.625 21.3707C127.517 20.6463 126.664 19.6484 126.068 18.3771C125.471 17.1058 125.173 15.6534 125.173 14.0199C125.173 12.3579 125.478 10.8913 126.089 9.62001C126.707 8.3416 127.566 7.34373 128.667 6.6264C129.775 5.90197 131.068 5.53975 132.545 5.53975C133.696 5.53975 134.732 5.75282 135.656 6.17896C136.579 6.60509 137.335 7.20168 137.925 7.96873C138.514 8.73577 138.88 9.63066 139.022 10.6534H136.508C136.316 9.90765 135.89 9.24714 135.23 8.67185C134.576 8.08947 133.696 7.79827 132.588 7.79827C131.607 7.79827 130.748 8.05395 130.009 8.56532C129.278 9.06958 128.706 9.78336 128.294 10.7067C127.889 11.6228 127.687 12.6988 127.687 13.9346C127.687 15.1988 127.886 16.2997 128.284 17.2372C128.688 18.1747 129.257 18.9027 129.988 19.4211C130.727 19.9396 131.593 20.1988 132.588 20.1988C133.241 20.1988 133.834 20.0852 134.367 19.8579C134.899 19.6307 135.35 19.304 135.72 18.8778C136.089 18.4517 136.352 17.9403 136.508 17.3437H139.022C138.88 18.3096 138.529 19.1797 137.968 19.9538C137.414 20.7209 136.678 21.3317 135.762 21.7862C134.853 22.2336 133.795 22.4574 132.588 22.4574ZM145.413 22.5C144.376 22.5 143.435 22.3047 142.59 21.914C141.745 21.5163 141.074 20.9446 140.576 20.1988C140.079 19.446 139.831 18.5369 139.831 17.4716C139.831 16.5341 140.015 15.7741 140.385 15.1917C140.754 14.6023 141.248 14.1406 141.865 13.8068C142.483 13.473 143.165 13.2244 143.911 13.0611C144.664 12.8906 145.42 12.7557 146.18 12.6562C147.174 12.5284 147.98 12.4325 148.598 12.3686C149.223 12.2976 149.678 12.1804 149.962 12.017C150.253 11.8537 150.399 11.5696 150.399 11.1647V11.0795C150.399 10.0284 150.111 9.21163 149.536 8.62924C148.968 8.04685 148.105 7.75566 146.947 7.75566C145.747 7.75566 144.806 8.01844 144.124 8.54401C143.442 9.06958 142.963 9.63066 142.686 10.2272L140.299 9.37498C140.726 8.38066 141.294 7.60651 142.004 7.05253C142.721 6.49145 143.502 6.10083 144.348 5.88066C145.2 5.65339 146.038 5.53975 146.862 5.53975C147.387 5.53975 147.991 5.60367 148.673 5.73151C149.362 5.85225 150.026 6.10438 150.665 6.4879C151.311 6.87143 151.848 7.45026 152.274 8.22441C152.7 8.99856 152.913 10.0355 152.913 11.3352V22.1165H150.399V19.9005H150.271C150.101 20.2557 149.816 20.6356 149.419 21.0405C149.021 21.4453 148.492 21.7898 147.831 22.0738C147.171 22.3579 146.365 22.5 145.413 22.5ZM145.797 20.2415C146.791 20.2415 147.629 20.0461 148.311 19.6555C149 19.2649 149.518 18.7606 149.866 18.1427C150.221 17.5248 150.399 16.875 150.399 16.1932V13.892C150.292 14.0199 150.058 14.1371 149.696 14.2436C149.341 14.343 148.929 14.4318 148.46 14.5099C147.998 14.5809 147.547 14.6449 147.107 14.7017C146.674 14.7514 146.322 14.794 146.052 14.8295C145.399 14.9148 144.788 15.0532 144.22 15.245C143.659 15.4297 143.204 15.7102 142.856 16.0866C142.515 16.4559 142.345 16.9602 142.345 17.5994C142.345 18.473 142.668 19.1335 143.314 19.5809C143.968 20.0213 144.795 20.2415 145.797 20.2415ZM157.916 0.298273V22.1165H155.402V0.298273H157.916ZM167.069 22.4574C165.535 22.4574 164.214 22.0951 163.106 21.3707C161.998 20.6463 161.146 19.6484 160.549 18.3771C159.952 17.1058 159.654 15.6534 159.654 14.0199C159.654 12.3579 159.959 10.8913 160.57 9.62001C161.188 8.3416 162.048 7.34373 163.148 6.6264C164.256 5.90197 165.549 5.53975 167.026 5.53975C168.177 5.53975 169.214 5.75282 170.137 6.17896C171.06 6.60509 171.817 7.20168 172.406 7.96873C172.996 8.73577 173.361 9.63066 173.503 10.6534H170.989C170.798 9.90765 170.371 9.24714 169.711 8.67185C169.057 8.08947 168.177 7.79827 167.069 7.79827C166.089 7.79827 165.229 8.05395 164.491 8.56532C163.759 9.06958 163.187 9.78336 162.776 10.7067C162.371 11.6228 162.168 12.6988 162.168 13.9346C162.168 15.1988 162.367 16.2997 162.765 17.2372C163.17 18.1747 163.738 18.9027 164.469 19.4211C165.208 19.9396 166.075 20.1988 167.069 20.1988C167.722 20.1988 168.315 20.0852 168.848 19.8579C169.381 19.6307 169.832 19.304 170.201 18.8778C170.57 18.4517 170.833 17.9403 170.989 17.3437H173.503C173.361 18.3096 173.01 19.1797 172.449 19.9538C171.895 20.7209 171.16 21.3317 170.244 21.7862C169.334 22.2336 168.276 22.4574 167.069 22.4574ZM185.391 15.4261V5.75282H187.906V22.1165H185.391V19.3466H185.221C184.837 20.1775 184.241 20.8842 183.431 21.4666C182.622 22.0419 181.599 22.3295 180.363 22.3295C179.34 22.3295 178.431 22.1058 177.636 21.6584C176.84 21.2038 176.215 20.522 175.761 19.6129C175.306 18.6967 175.079 17.5426 175.079 16.1505V5.75282H177.593V15.9801C177.593 17.1733 177.927 18.125 178.595 18.8352C179.269 19.5454 180.129 19.9005 181.173 19.9005C181.798 19.9005 182.433 19.7407 183.08 19.4211C183.733 19.1015 184.28 18.6115 184.72 17.951C185.168 17.2905 185.391 16.4488 185.391 15.4261ZM192.925 0.298273V22.1165H190.411V0.298273H192.925ZM200.245 22.5C199.208 22.5 198.267 22.3047 197.422 21.914C196.577 21.5163 195.906 20.9446 195.408 20.1988C194.911 19.446 194.663 18.5369 194.663 17.4716C194.663 16.5341 194.847 15.7741 195.217 15.1917C195.586 14.6023 196.08 14.1406 196.697 13.8068C197.315 13.473 197.997 13.2244 198.743 13.0611C199.496 12.8906 200.252 12.7557 201.012 12.6562C202.006 12.5284 202.813 12.4325 203.43 12.3686C204.055 12.2976 204.51 12.1804 204.794 12.017C205.085 11.8537 205.231 11.5696 205.231 11.1647V11.0795C205.231 10.0284 204.943 9.21163 204.368 8.62924C203.8 8.04685 202.937 7.75566 201.779 7.75566C200.579 7.75566 199.638 8.01844 198.956 8.54401C198.274 9.06958 197.795 9.63066 197.518 10.2272L195.131 9.37498C195.558 8.38066 196.126 7.60651 196.836 7.05253C197.553 6.49145 198.335 6.10083 199.18 5.88066C200.032 5.65339 200.87 5.53975 201.694 5.53975C202.219 5.53975 202.823 5.60367 203.505 5.73151C204.194 5.85225 204.858 6.10438 205.497 6.4879C206.143 6.87143 206.68 7.45026 207.106 8.22441C207.532 8.99856 207.745 10.0355 207.745 11.3352V22.1165H205.231V19.9005H205.103C204.933 20.2557 204.648 20.6356 204.251 21.0405C203.853 21.4453 203.324 21.7898 202.663 22.0738C202.003 22.3579 201.197 22.5 200.245 22.5ZM200.629 20.2415C201.623 20.2415 202.461 20.0461 203.143 19.6555C203.832 19.2649 204.35 18.7606 204.698 18.1427C205.053 17.5248 205.231 16.875 205.231 16.1932V13.892C205.124 14.0199 204.89 14.1371 204.528 14.2436C204.173 14.343 203.761 14.4318 203.292 14.5099C202.83 14.5809 202.379 14.6449 201.939 14.7017C201.506 14.7514 201.154 14.794 200.884 14.8295C200.231 14.9148 199.62 15.0532 199.052 15.245C198.491 15.4297 198.036 15.7102 197.688 16.0866C197.347 16.4559 197.177 16.9602 197.177 17.5994C197.177 18.473 197.5 19.1335 198.146 19.5809C198.8 20.0213 199.627 20.2415 200.629 20.2415ZM217.35 5.75282V7.8835H208.87V5.75282H217.35ZM211.342 1.83236H213.856V17.429C213.856 18.1392 213.959 18.6719 214.165 19.027C214.378 19.375 214.648 19.6094 214.975 19.7301C215.309 19.8437 215.66 19.9005 216.029 19.9005C216.306 19.9005 216.534 19.8863 216.711 19.8579C216.889 19.8224 217.031 19.794 217.137 19.7727L217.649 22.0312C217.478 22.0951 217.24 22.1591 216.935 22.223C216.63 22.294 216.243 22.3295 215.774 22.3295C215.064 22.3295 214.368 22.1768 213.686 21.8714C213.011 21.566 212.45 21.1008 212.002 20.4758C211.562 19.8508 211.342 19.0625 211.342 18.1108V1.83236ZM225.504 22.4574C224.027 22.4574 222.731 22.1058 221.616 21.4027C220.508 20.6996 219.641 19.7159 219.016 18.4517C218.399 17.1875 218.09 15.7102 218.09 14.0199C218.09 12.3153 218.399 10.8274 219.016 9.55609C219.641 8.28478 220.508 7.29756 221.616 6.59444C222.731 5.89131 224.027 5.53975 225.504 5.53975C226.982 5.53975 228.274 5.89131 229.382 6.59444C230.497 7.29756 231.364 8.28478 231.982 9.55609C232.607 10.8274 232.919 12.3153 232.919 14.0199C232.919 15.7102 232.607 17.1875 231.982 18.4517C231.364 19.7159 230.497 20.6996 229.382 21.4027C228.274 22.1058 226.982 22.4574 225.504 22.4574ZM225.504 20.1988C226.627 20.1988 227.55 19.9112 228.274 19.3359C228.999 18.7606 229.535 18.0042 229.883 17.0667C230.231 16.1292 230.405 15.1136 230.405 14.0199C230.405 12.9261 230.231 11.9069 229.883 10.9623C229.535 10.0177 228.999 9.25424 228.274 8.67185C227.55 8.08947 226.627 7.79827 225.504 7.79827C224.382 7.79827 223.459 8.08947 222.734 8.67185C222.01 9.25424 221.474 10.0177 221.126 10.9623C220.778 11.9069 220.604 12.9261 220.604 14.0199C220.604 15.1136 220.778 16.1292 221.126 17.0667C221.474 18.0042 222.01 18.7606 222.734 19.3359C223.459 19.9112 224.382 20.1988 225.504 20.1988ZM234.657 22.1165V5.75282H237.086V8.22441H237.256C237.555 7.41475 238.095 6.75779 238.876 6.25353C239.657 5.74927 240.538 5.49714 241.518 5.49714C241.703 5.49714 241.933 5.50069 242.21 5.50779C242.487 5.51489 242.697 5.52555 242.839 5.53975V8.09657C242.754 8.07526 242.558 8.0433 242.253 8.00069C241.955 7.95097 241.639 7.92611 241.305 7.92611C240.509 7.92611 239.799 8.09302 239.174 8.42682C238.556 8.75353 238.066 9.20807 237.704 9.79046C237.349 10.3657 237.171 11.0227 237.171 11.7613V22.1165H234.657Z" fill="white"/>
<path d="M4.57764e-05 28.0824H41.7058V30.1278H4.57764e-05V28.0824ZM48.3123 28.0824H243.521V30.1278H48.3123V28.0824Z" fill="white"/>
</svg>
